<svg width="1015" height="107" viewBox="0 0 1015 107" fill="none" xmlns="http://www.w3.org/2000/svg">
<path d="M54.616 0.031991C60.376 0.031991 65.272 0.847992 69.304 2.47999C73.336 4.112 77.272 6.416 81.112 9.392C82.072 10.256 82.984 10.688 83.848 10.688C85.768 10.688 87.016 7.808 87.592 2.048H90.904C90.52 8.864 90.328 20.864 90.328 38.048H87.016C86.344 30.368 85.096 24.32 83.272 19.904C81.448 15.488 78.28 11.792 73.768 8.816C69.256 5.936 64.792 4.49599 60.376 4.49599C50.392 4.49599 43.384 9.29599 39.352 18.896C35.32 28.496 33.304 39.968 33.304 53.312C33.304 66.656 35.32 78.128 39.352 87.728C43.384 97.328 50.392 102.128 60.376 102.128C64.792 102.128 69.256 100.688 73.768 97.808C78.28 95.024 81.448 91.28 83.272 86.576C85.096 81.872 86.344 75.2 87.016 66.56H90.328C90.328 84.512 90.52 96.992 90.904 104H87.592C87.304 100.928 86.872 98.768 86.296 97.52C85.816 96.176 85.096 95.504 84.136 95.504C83.368 95.504 82.36 95.888 81.112 96.656C76.792 99.728 72.664 102.08 68.728 103.712C64.792 105.248 60.04 106.016 54.472 106.016C43.624 106.016 34.12 103.952 25.96 99.824C17.8 95.696 11.464 89.744 6.952 81.968C2.44 74.096 0.184 64.736 0.184 53.888C0.184 43.328 2.488 33.968 7.096 25.808C11.704 17.648 18.136 11.312 26.392 6.8C34.648 2.28799 44.056 0.031991 54.616 0.031991ZM151.931 4.928C148.859 5.11999 146.603 5.50399 145.163 6.08C143.819 6.656 142.907 7.76 142.427 9.392C141.947 11.024 141.707 13.664 141.707 17.312V88.736C141.707 92.384 141.947 95.024 142.427 96.656C143.003 98.288 143.963 99.392 145.307 99.968C146.651 100.544 148.859 100.928 151.931 101.12V104C146.363 103.712 138.347 103.568 127.883 103.568C116.267 103.568 107.723 103.712 102.251 104V101.12C105.323 100.928 107.531 100.544 108.875 99.968C110.315 99.392 111.275 98.288 111.755 96.656C112.235 95.024 112.475 92.384 112.475 88.736V17.312C112.475 13.664 112.187 11.024 111.611 9.392C111.131 7.76 110.219 6.656 108.875 6.08C107.531 5.50399 105.323 5.11999 102.251 4.928V2.048C107.723 2.336 116.267 2.47999 127.883 2.47999C138.251 2.47999 146.267 2.336 151.931 2.048V4.928ZM246.448 2.47999C250.96 2.47999 254.656 2.336 257.536 2.048V4.928C255.04 6.176 252.496 8.432 249.904 11.696C247.408 14.96 245.152 19.424 243.136 25.088L215.056 104C211.984 103.808 209.44 103.712 207.424 103.712C205.504 103.712 203.008 103.808 199.936 104L162.208 14.144C160.96 11.072 159.568 8.816 158.032 7.376C156.592 5.84 155.152 5.024 153.712 4.928V2.048C160.624 2.336 169.36 2.47999 179.92 2.47999C190.864 2.47999 198.928 2.336 204.112 2.048V4.928C200.464 5.11999 197.872 5.55199 196.336 6.224C194.8 6.89599 194.032 8.23999 194.032 10.256C194.032 11.888 194.608 14.144 195.76 17.024L220.672 78.368L234.64 39.2C237.808 30.368 239.392 23.264 239.392 17.888C239.392 9.53599 235.456 5.21599 227.584 4.928V2.048C234.784 2.336 241.072 2.47999 246.448 2.47999ZM309.571 4.928C306.499 5.11999 304.243 5.50399 302.803 6.08C301.459 6.656 300.547 7.76 300.067 9.392C299.587 11.024 299.347 13.664 299.347 17.312V88.736C299.347 92.384 299.587 95.024 300.067 96.656C300.643 98.288 301.603 99.392 302.947 99.968C304.291 100.544 306.499 100.928 309.571 101.12V104C304.003 103.712 295.987 103.568 285.523 103.568C273.907 103.568 265.363 103.712 259.891 104V101.12C262.963 100.928 265.171 100.544 266.515 99.968C267.955 99.392 268.915 98.288 269.395 96.656C269.875 95.024 270.115 92.384 270.115 88.736V17.312C270.115 13.664 269.827 11.024 269.251 9.392C268.771 7.76 267.859 6.656 266.515 6.08C265.171 5.50399 262.963 5.11999 259.891 4.928V2.048C265.363 2.336 273.907 2.47999 285.523 2.47999C295.891 2.47999 303.907 2.336 309.571 2.048V4.928ZM368.808 4.928C365.352 5.11999 362.808 5.50399 361.176 6.08C359.64 6.656 358.584 7.76 358.008 9.392C357.432 11.024 357.144 13.664 357.144 17.312V91.616C357.144 94.304 357.336 96.272 357.72 97.52C358.104 98.768 358.776 99.632 359.736 100.112C360.696 100.496 362.28 100.688 364.488 100.688H369.24C372.6 100.688 376.248 99.008 380.184 95.648C384.12 92.288 387.672 87.872 390.84 82.4C394.008 76.832 396.12 71.072 397.176 65.12H400.488C400.2 68.576 400.056 72.992 400.056 78.368C400.056 88.736 400.392 97.28 401.064 104C394.536 103.712 383.544 103.568 368.088 103.568C345.624 103.568 328.824 103.712 317.688 104V101.12C320.76 100.928 322.968 100.544 324.312 99.968C325.752 99.392 326.712 98.288 327.192 96.656C327.672 95.024 327.912 92.384 327.912 88.736V17.312C327.912 13.664 327.624 11.024 327.048 9.392C326.568 7.76 325.656 6.656 324.312 6.08C322.968 5.50399 320.76 5.11999 317.688 4.928V2.048C323.16 2.336 331.704 2.47999 343.32 2.47999C354.36 2.47999 362.856 2.336 368.808 2.048V4.928ZM457.509 4.928C454.437 5.11999 452.181 5.50399 450.741 6.08C449.397 6.656 448.485 7.76 448.005 9.392C447.525 11.024 447.285 13.664 447.285 17.312V88.736C447.285 92.384 447.525 95.024 448.005 96.656C448.581 98.288 449.541 99.392 450.885 99.968C452.229 100.544 454.437 100.928 457.509 101.12V104C451.941 103.712 443.925 103.568 433.461 103.568C421.845 103.568 413.301 103.712 407.829 104V101.12C410.901 100.928 413.109 100.544 414.453 99.968C415.893 99.392 416.853 98.288 417.333 96.656C417.813 95.024 418.053 92.384 418.053 88.736V17.312C418.053 13.664 417.765 11.024 417.189 9.392C416.709 7.76 415.797 6.656 414.453 6.08C413.109 5.50399 410.901 5.11999 407.829 4.928V2.048C413.301 2.336 421.845 2.47999 433.461 2.47999C443.829 2.47999 451.845 2.336 457.509 2.048V4.928ZM542.378 4.928L498.746 100.688H504.794C508.73 100.688 513.242 99.584 518.33 97.376C523.418 95.072 528.026 91.376 532.154 86.288C536.282 81.104 538.778 74.528 539.642 66.56H542.954C542.666 70.016 542.522 74.432 542.522 79.808C542.522 89.6 542.858 97.664 543.53 104C536.426 103.712 524.474 103.568 507.674 103.568C488.954 103.568 475.37 103.712 466.922 104V101.12L510.554 5.35999H503.354C498.842 5.35999 494.33 6.36799 489.818 8.384C485.306 10.304 481.322 13.616 477.866 18.32C474.41 22.928 472.154 29.024 471.098 36.608H467.786C468.074 34.112 468.218 30.656 468.218 26.24C468.218 19.136 467.882 11.072 467.21 2.048C473.162 2.336 483.194 2.47999 497.306 2.47999C518.042 2.47999 533.066 2.336 542.378 2.048V4.928ZM641.223 91.904C642.471 94.976 643.815 97.28 645.255 98.816C646.791 100.256 648.279 101.024 649.719 101.12V104C642.807 103.712 634.071 103.568 623.511 103.568C612.567 103.568 604.503 103.712 599.319 104V101.12C602.967 100.928 605.559 100.496 607.095 99.824C608.631 99.056 609.399 97.76 609.399 95.936C609.399 94.208 608.823 91.904 607.671 89.024L599.175 65.408H570.087L567.639 71.888C564.471 80.048 562.887 86.288 562.887 90.608C562.887 94.544 563.991 97.232 566.199 98.672C568.407 100.112 571.671 100.928 575.991 101.12V104C568.791 103.712 562.503 103.568 557.127 103.568C552.615 103.568 548.918 103.712 546.038 104V101.12C548.438 100.736 550.695 99.248 552.807 96.656C554.919 94.064 557.079 89.936 559.287 84.272L591.255 2.048C594.327 2.24 596.871 2.336 598.887 2.336C600.807 2.336 603.303 2.24 606.375 2.048L641.223 91.904ZM598.167 62.528L585.062 26.528L571.239 62.528H598.167ZM734.578 2.048C733.906 12.704 733.57 22.208 733.57 30.56C733.57 34.976 733.714 38.432 734.002 40.928H730.69C727.522 28.352 723.442 19.28 718.45 13.712C713.458 8.14399 708.082 5.35999 702.322 5.35999H702.178V87.728C702.178 91.76 702.562 94.688 703.33 96.512C704.194 98.336 705.682 99.584 707.794 100.256C710.002 100.832 713.458 101.12 718.162 101.12V104C704.626 103.712 694.114 103.568 686.626 103.568C679.81 103.568 669.922 103.712 656.962 104V101.12C661.666 101.12 665.074 100.832 667.186 100.256C669.394 99.584 670.882 98.336 671.65 96.512C672.514 94.688 672.946 91.76 672.946 87.728V5.35999H672.802C666.946 5.35999 661.522 8.14399 656.53 13.712C651.634 19.184 647.602 28.256 644.434 40.928H641.122C641.41 38.432 641.554 34.976 641.554 30.56C641.554 22.208 641.218 12.704 640.546 2.048C649.666 2.336 665.362 2.47999 687.634 2.47999C709.81 2.47999 725.458 2.336 734.578 2.048ZM791.634 4.928C788.562 5.11999 786.306 5.50399 784.866 6.08C783.522 6.656 782.61 7.76 782.13 9.392C781.65 11.024 781.41 13.664 781.41 17.312V88.736C781.41 92.384 781.65 95.024 782.13 96.656C782.706 98.288 783.666 99.392 785.01 99.968C786.354 100.544 788.562 100.928 791.634 101.12V104C786.066 103.712 778.05 103.568 767.586 103.568C755.97 103.568 747.426 103.712 741.954 104V101.12C745.026 100.928 747.234 100.544 748.578 99.968C750.018 99.392 750.978 98.288 751.458 96.656C751.938 95.024 752.178 92.384 752.178 88.736V17.312C752.178 13.664 751.89 11.024 751.314 9.392C750.834 7.76 749.922 6.656 748.578 6.08C747.234 5.50399 745.026 5.11999 741.954 4.928V2.048C747.426 2.336 755.97 2.47999 767.586 2.47999C777.954 2.47999 785.97 2.336 791.634 2.048V4.928ZM854.21 0.031991C865.058 0.031991 874.562 2.09599 882.722 6.224C890.882 10.352 897.218 16.352 901.73 24.224C906.242 32 908.498 41.312 908.498 52.16C908.498 62.72 906.194 72.08 901.586 80.24C896.978 88.4 890.546 94.736 882.29 99.248C874.034 103.76 864.626 106.016 854.066 106.016C843.218 106.016 833.714 103.952 825.554 99.824C817.394 95.696 811.058 89.744 806.546 81.968C802.034 74.096 799.778 64.736 799.778 53.888C799.778 43.328 802.082 33.968 806.69 25.808C811.298 17.648 817.73 11.312 825.986 6.8C834.242 2.28799 843.65 0.031991 854.21 0.031991ZM853.634 2.62399C848.93 2.62399 844.754 4.78399 841.106 9.10399C837.554 13.328 834.818 19.28 832.898 26.96C830.978 34.64 830.018 43.424 830.018 53.312C830.018 63.296 831.122 72.08 833.33 79.664C835.538 87.248 838.514 93.104 842.258 97.232C846.002 101.36 850.13 103.424 854.642 103.424C859.346 103.424 863.474 101.312 867.026 97.088C870.674 92.768 873.458 86.768 875.378 79.088C877.298 71.408 878.258 62.624 878.258 52.736C878.258 42.752 877.154 33.968 874.946 26.384C872.738 18.8 869.762 12.944 866.018 8.816C862.274 4.68799 858.146 2.62399 853.634 2.62399ZM1014.53 4.928C1011.55 5.59999 1009.35 6.65599 1007.91 8.096C1006.47 9.44 1005.51 11.552 1005.03 14.432C1004.55 17.312 1004.31 21.632 1004.31 27.392V104C1002.39 103.808 1000.8 103.712 999.554 103.712C998.498 103.712 996.722 103.808 994.226 104L930.434 34.304V75.776C930.434 82.88 930.722 88.016 931.298 91.184C931.874 94.256 933.122 96.512 935.042 97.952C937.058 99.392 940.37 100.448 944.978 101.12V104C941.042 103.712 935.666 103.568 928.85 103.568C923.762 103.568 919.778 103.712 916.898 104V101.12C919.874 100.448 922.082 99.44 923.522 98.096C924.962 96.656 925.922 94.496 926.402 91.616C926.882 88.736 927.122 84.416 927.122 78.656V17.312C927.122 13.664 926.834 11.024 926.258 9.392C925.778 7.76 924.866 6.656 923.522 6.08C922.178 5.50399 919.97 5.11999 916.898 4.928V2.048C919.778 2.336 923.762 2.47999 928.85 2.47999C934.034 2.47999 938.45 2.336 942.098 2.048L1000.99 64.256V30.272C1000.99 23.168 1000.71 18.08 1000.13 15.008C999.554 11.84 998.258 9.536 996.242 8.096C994.322 6.65599 991.058 5.59999 986.45 4.928V2.048C990.386 2.336 995.762 2.47999 1002.58 2.47999C1007.67 2.47999 1011.65 2.336 1014.53 2.048V4.928Z" fill="#D19977"/>
</svg>
